<svg xmlns="http://www.w3.org/2000/svg">
   <!--shipping sprite-->
   <symbol id="shipping" viewBox="0 0 24 24">
      <path fill-rule="evenodd" clip-rule="evenodd" d="M16.5 6H3V17.25H3.375H4.5H4.52658C4.70854 
      18.5221 5.80257 19.5 7.125 19.5C8.44743 19.5 9.54146 18.5221 9.72342 17.25H15.0266C15.2085 
      18.5221 16.3026 19.5 17.625 19.5C18.9474 19.5 20.0415 18.5221 20.2234 
      17.25H21.75V12.4393L18.3107 9H16.5V6ZM16.5 10.5V14.5026C16.841 14.3406 
      17.2224 14.25 17.625 14.25C18.6721 14.25 19.5761 14.8631 19.9974 15.75H20.25V13.0607L17.6893 
      10.5H16.5ZM15 15.75V9V7.5H4.5V15.75H4.75261C5.17391 14.8631 6.07785 14.25 7.125 14.25C8.17215 
      14.25 9.07609 14.8631 9.49739 15.75H15ZM17.625 18C17.0037 18 16.5 17.4963 16.5 16.875C16.5 
      16.2537 17.0037 15.75 17.625 15.75C18.2463 15.75 18.75 16.2537 18.75 16.875C18.75 17.4963 
      18.2463 18 17.625 18ZM8.25 16.875C8.25 17.4963 7.74632 18 7.125 18C6.50368 18 6 17.4963 
      6 16.875C6 16.2537 6.50368 15.75 7.125 15.75C7.74632 15.75 8.25 16.2537 8.25 16.875Z" />
   </symbol>
   <!--flowers sprite-->
   <symbol id="flowers" viewBox="0 0 32 32">
      <path d="M13.931 19.932c2.501-3.823-1.935-7.059-4.692-2.878h-0c-3.707-4.17-9.041-1.828-5.944 3.503-3.197 
         2.159-2.404 8.224 2.628 7.32 0.398 4.93 9.263 2.684 7.534-1.186 5.372-1.872 3.476-5.408 0.475-6.76zM9.3 
         25.498c-1.555 0-2.815-1.26-2.815-2.815s1.261-2.815 2.815-2.815 2.815 1.26 2.815 2.815c0 1.555-1.261 
         2.815-2.815 2.815zM27.364 13.568l-0 0.001c1.619-4.876-2.704-8.052-5.529-3.127-3.193-1.556-7.664 
         0.631-4.627 5.466-3.056 4.17 1.5 7.211 4.413 5.462 2.196 3.821 7.151 0.326 5.609-2.735 4.2 0.234 
         4.738-4.794 0.135-5.067zM24.197 18.463c-1.24 0.716-2.825 0.291-3.541-0.949s-0.291-2.826 
         0.949-3.542c1.24-0.716 2.825-0.291 3.541 0.949s0.291 2.826-0.949 3.542zM12.413 
         6.218c2.031-3.493-0.745-6.581-4.153-3.683-2.608-2.643-6.885-1.002-5.335 3.702-3.89 
         1.387-0.164 8.052 2.583 5.82 2.67 3.929 5.112 1.635 5.554-1.079 3.623 1.19 5.319-3.441 
         1.351-4.761zM8.625 9.657c-1.254 0.336-2.542-0.408-2.878-1.662s0.408-2.543 1.662-2.88c1.254-0.336 
         2.542 0.408 2.878 1.662s-0.408 2.543-1.662 2.88zM22.531 
         26.376c1.36-1.863-1.445-3.83-1.964-0.781-1.491-1.914-3.63 0.287-1.281 1.674-2.967 
         1.519 0.166 3.553 1.369 1.714 0.265 3.087 3.791 1.134 1.817-0.675 2.505 0.411 2.5-2.007 
         0.059-1.933zM21.153 28.064c-0.391 0-0.708-0.317-0.708-0.708s0.317-0.708 0.708-0.708c0.391 
         0 0.708 0.317 0.708 0.708s-0.317 0.708-0.708 0.708zM20.733 4.715c2.635-0.573 
         0.465-3.684-1.236-1.493-0.007-2.157-3.296-1.824-2.043 0.8h0c-2.133-0.044-1.329 
         2.925 0.272 2.091-0.835 2.579 2.542 2.984 2.092 0.306 2.014 1.269 2.925-0.756 
         0.915-1.704zM18.901 5.666c-0.391 0-0.708-0.317-0.708-0.708s0.317-0.708 
         0.708-0.708c0.391 0 0.708 0.317 0.708 0.708s-0.317 0.708-0.708 0.708z">
      </path>
   </symbol>
   <!--services sprite-->
   <symbol id="services" viewBox="0 0 502.672 502.672">
      <g>
			<path d="M138.29,168.019h258.806v-16.178c0-13.352-10.936-24.267-24.267-24.267H266.011v-14.129
				c0-20.104-16.351-36.39-36.39-36.39h-62.124c-9.707,0-18.831,3.796-25.734,10.699c-6.903,6.903-10.678,15.962-10.678,25.691
				v14.15H24.267C10.915,127.574,0,138.488,0,151.841v216.722l81.581-165.275C91.482,183.161,115.9,168.019,138.29,168.019z
				M155.353,113.445c0-3.214,1.316-6.256,3.581-8.542c2.265-2.33,5.328-3.602,8.542-3.602h62.124
				c6.709,0,12.123,5.436,12.123,12.144v14.15h-86.369V113.445z"/>
			<path d="M486.874,192.243H138.29c-13.331,0-29.099,9.793-34.945,21.743L9.599,403.895
				c-5.91,11.929,0.194,21.722,13.525,21.722h348.584c13.331,0,29.121-9.772,34.988-21.722l93.725-189.909
				C506.309,202.036,500.248,192.243,486.874,192.243z"/>
		</g>
   </symbol>
</svg>